<svg width="32" height="32" viewBox="0 0 32 32" fill="none" xmlns="http://www.w3.org/2000/svg">
  <!-- Chain links representing blockchain -->
  <path d="M8 12C8 10.8954 8.89543 10 10 10H12C13.1046 10 14 10.8954 14 12V14C14 15.1046 13.1046 16 12 16H10C8.89543 16 8 15.1046 8 14V12Z" fill="#3B82F6"/>
  <path d="M18 12C18 10.8954 18.8954 10 20 10H22C23.1046 10 24 10.8954 24 12V14C24 15.1046 23.1046 16 22 16H20C18.8954 16 18 15.1046 18 14V12Z" fill="#3B82F6"/>
  <path d="M8 18C8 16.8954 8.89543 16 10 16H12C13.1046 16 14 16.8954 14 18V20C14 21.1046 13.1046 22 12 22H10C8.89543 22 8 21.1046 8 20V18Z" fill="#3B82F6"/>
  <path d="M18 18C18 16.8954 18.8954 16 20 16H22C23.1046 16 24 16.8954 24 18V20C24 21.1046 23.1046 22 22 22H20C18.8954 22 18 21.1046 18 20V18Z" fill="#3B82F6"/>
  
  <!-- Connecting links between chain blocks -->
  <path d="M14 13H18" stroke="#3B82F6" stroke-width="1.5" stroke-linecap="round"/>
  <path d="M14 19H18" stroke="#3B82F6" stroke-width="1.5" stroke-linecap="round"/>
  <path d="M13 14V18" stroke="#3B82F6" stroke-width="1.5" stroke-linecap="round"/>
  <path d="M19 14V18" stroke="#3B82F6" stroke-width="1.5" stroke-linecap="round"/>
  
  <!-- Upward trending line representing equity growth -->
  <path d="M6 24L10 20L14 22L18 18L22 20L26 16" stroke="#10B981" stroke-width="2" stroke-linecap="round" stroke-linejoin="round" fill="none"/>
</svg>

